<svg width="1200" height="360" viewBox="0 0 1200 360" fill="none" xmlns="http://www.w3.org/2000/svg" role="img" aria-labelledby="title desc">
  <title id="title">TABAS banner</title>
  <desc id="desc">Triage And Bed Allocation System branded banner</desc>
  <defs>
    <linearGradient id="bg" x1="80" y1="40" x2="1120" y2="320" gradientUnits="userSpaceOnUse">
      <stop stop-color="#0F172A"/>
      <stop offset="0.52" stop-color="#0369A1"/>
      <stop offset="1" stop-color="#22C55E"/>
    </linearGradient>
    <linearGradient id="card" x1="220" y1="80" x2="420" y2="280" gradientUnits="userSpaceOnUse">
      <stop stop-color="#E0F2FE" stop-opacity="0.22"/>
      <stop offset="1" stop-color="#FFFFFF" stop-opacity="0.06"/>
    </linearGradient>
  </defs>
  <rect width="1200" height="360" rx="40" fill="url(#bg)"/>
  <circle cx="1028" cy="92" r="110" fill="#FFFFFF" fill-opacity="0.06"/>
  <circle cx="1084" cy="258" r="76" fill="#FFFFFF" fill-opacity="0.05"/>
  <rect x="96" y="84" width="192" height="192" rx="44" fill="url(#card)" stroke="#FFFFFF" stroke-opacity="0.12"/>
  <path d="M144 126H240C248.837 126 256 133.163 256 142V218C256 226.837 248.837 234 240 234H144C135.163 234 128 226.837 128 218V142C128 133.163 135.163 126 144 126Z" fill="#FFFFFF" fill-opacity="0.12"/>
  <path d="M152 156H232" stroke="#E0F2FE" stroke-width="12" stroke-linecap="round"/>
  <path d="M192 146V202" stroke="#E0F2FE" stroke-width="12" stroke-linecap="round"/>
  <path d="M174 198H210" stroke="#BBF7D0" stroke-width="12" stroke-linecap="round"/>
  <circle cx="150" cy="112" r="14" fill="#DBEAFE"/>
  <circle cx="234" cy="112" r="14" fill="#DBEAFE"/>
  <text x="344" y="160" fill="#FFFFFF" font-family="Inter, Segoe UI, Arial, sans-serif" font-size="86" font-weight="800" letter-spacing="6">TABAS</text>
  <text x="344" y="220" fill="#D1FAE5" font-family="Inter, Segoe UI, Arial, sans-serif" font-size="30" font-weight="600" letter-spacing="1.5">Triage And Bed Allocation System</text>
  <text x="344" y="264" fill="#E2E8F0" font-family="Inter, Segoe UI, Arial, sans-serif" font-size="22" font-weight="500">Hospital workflow prototype for triage, allocation, and audit review</text>
</svg>
